<svg id="canvas" width="100%" height="100%" viewBox="335.451 265.073 514.140 101.435" preserveAspectRatio="xMidYMid meet" class="h-full w-full max-w-4xl text-primary transition-opacity duration-300 opacity-100" xmlns="http://www.w3.org/2000/svg"><g id="canvas-strokes"><path d="M 377.59,269.49 C 376.51 269.85, 375.79 270.33, 374.53 272.30 C 373.27 274.27, 372.83 275.82, 371.30 279.34 C 369.78 282.86, 368.79 285.31, 366.89 289.90 C 365.00 294.48, 363.99 297.30, 361.83 302.26 C 359.67 307.21, 358.35 309.88, 356.11 314.66 C 353.86 319.44, 352.65 321.83, 350.62 326.17 C 348.59 330.51, 347.68 332.65, 345.95 336.37 C 344.23 340.09, 343.33 341.80, 342.01 344.78 C 340.69 347.76, 340.05 349.20, 339.35 351.27 C 338.64 353.34, 338.57 354.02, 338.47 355.15 C 338.37 356.28, 338.68 356.49, 338.84 356.92 C 339.00 357.35, 339.18 357.10, 339.27 357.29 C 339.37 357.48, 339.07 357.68, 339.30 357.87 C 339.53 358.05, 339.77 358.37, 340.42 358.20 C 341.06 358.03, 341.67 357.98, 342.53 357.02 C 343.39 356.05, 343.80 355.43, 344.72 353.39 C 345.64 351.35, 346.04 349.87, 347.11 346.81 C 348.19 343.76, 348.67 341.92, 350.11 338.12 C 351.55 334.32, 352.40 332.20, 354.30 327.83 C 356.20 323.47, 357.38 321.09, 359.63 316.32 C 361.89 311.54, 363.24 308.85, 365.57 303.97 C 367.91 299.09, 369.06 296.33, 371.30 291.92 C 373.54 287.51, 375.02 285.34, 376.77 281.91 C 378.51 278.47, 379.38 277.03, 380.02 274.75 C 380.66 272.46, 380.45 271.55, 379.96 270.50 C 379.48 269.45, 378.68 269.13, 377.59 269.49" style="stroke: black; fill:#DCDCD8;"></path><path d="M 379.66,268.42 C 378.98 268.91, 378.42 269.14, 378.25 270.64 C 378.07 272.14, 377.83 273.40, 378.79 275.92 C 379.75 278.44, 381.00 279.84, 383.03 283.26 C 385.05 286.68, 386.59 288.97, 388.91 293.02 C 391.23 297.07, 392.34 299.38, 394.62 303.51 C 396.90 307.65, 398.14 309.72, 400.29 313.71 C 402.45 317.70, 403.52 319.71, 405.41 323.46 C 407.30 327.21, 408.16 329.03, 409.75 332.45 C 411.34 335.87, 412.02 337.68, 413.35 340.57 C 414.68 343.46, 415.25 344.86, 416.39 346.90 C 417.52 348.94, 418.14 349.78, 419.04 350.76 C 419.95 351.74, 420.39 351.57, 420.92 351.80 C 421.44 352.02, 421.39 351.87, 421.68 351.89 C 421.96 351.91, 422.04 352.05, 422.32 351.89 C 422.60 351.74, 422.84 351.76, 423.08 351.11 C 423.33 350.46, 423.79 350.03, 423.56 348.62 C 423.34 347.21, 422.96 346.18, 421.95 344.04 C 420.95 341.90, 420.09 340.70, 418.54 337.93 C 416.99 335.16, 416.03 333.51, 414.21 330.19 C 412.38 326.88, 411.45 325.06, 409.43 321.35 C 407.41 317.64, 406.28 315.63, 404.11 311.64 C 401.94 307.65, 400.72 305.60, 398.58 301.41 C 396.44 297.22, 395.36 294.89, 393.40 290.69 C 391.45 286.50, 390.19 284.04, 388.80 280.44 C 387.40 276.85, 387.49 275.01, 386.41 272.71 C 385.34 270.41, 384.38 269.87, 383.43 268.96 C 382.47 268.06, 382.40 268.29, 381.65 268.18 C 380.89 268.07, 380.34 267.93, 379.66 268.42" style="stroke: black; fill:#DCDCD8;"></path><path d="M 352.36,329.24 C 352.98 329.62, 352.89 329.61, 353.72 329.70 C 354.54 329.78, 354.86 330.00, 356.48 329.67 C 358.11 329.35, 359.05 328.90, 361.83 328.09 C 364.61 327.27, 366.66 326.55, 370.37 325.60 C 374.08 324.65, 376.32 324.13, 380.37 323.35 C 384.43 322.56, 386.71 322.33, 390.63 321.68 C 394.55 321.04, 396.47 320.64, 399.97 320.14 C 403.47 319.63, 405.20 319.61, 408.13 319.16 C 411.06 318.72, 412.55 318.43, 414.61 317.92 C 416.66 317.42, 417.35 316.86, 418.42 316.64 C 419.48 316.42, 419.56 316.37, 419.93 316.83 C 420.29 317.30, 420.05 317.63, 420.23 318.96 C 420.42 320.29, 420.29 321.34, 420.84 323.49 C 421.38 325.64, 421.89 327.22, 422.96 329.72 C 424.03 332.22, 424.82 333.65, 426.19 335.97 C 427.56 338.28, 428.31 339.50, 429.83 341.30 C 431.36 343.09, 432.13 343.96, 433.83 344.93 C 435.52 345.91, 436.51 346.19, 438.31 346.16 C 440.11 346.14, 441.18 345.83, 442.85 344.82 C 444.52 343.81, 445.26 342.94, 446.67 341.11 C 448.08 339.27, 448.63 337.97, 449.90 335.66 C 451.17 333.34, 451.80 331.77, 453.01 329.52 C 454.22 327.27, 454.73 326.00, 455.96 324.41 C 457.20 322.82, 457.89 322.29, 459.18 321.56 C 460.48 320.83, 461.17 320.70, 462.44 320.76 C 463.71 320.81, 464.31 321.06, 465.55 321.84 C 466.78 322.61, 467.28 323.22, 468.60 324.64 C 469.93 326.06, 470.65 327.04, 472.17 328.92 C 473.69 330.79, 474.57 332.00, 476.18 334.03 C 477.80 336.06, 478.58 337.18, 480.25 339.06 C 481.92 340.94, 482.85 341.84, 484.53 343.43 C 486.21 345.03, 486.86 345.78, 488.63 347.04 C 490.41 348.30, 491.47 349.08, 493.42 349.74 C 495.37 350.40, 496.64 350.41, 498.38 350.35 C 500.11 350.28, 500.92 350.09, 502.09 349.43 C 503.27 348.77, 504.04 348.00, 504.24 347.03 C 504.43 346.07, 503.77 345.13, 503.07 344.59 C 502.38 344.05, 501.66 344.43, 500.76 344.31 C 499.87 344.19, 499.65 344.13, 498.60 343.97 C 497.55 343.81, 496.76 343.93, 495.51 343.51 C 494.26 343.10, 493.61 342.84, 492.35 341.91 C 491.09 340.97, 490.54 340.29, 489.22 338.83 C 487.89 337.37, 487.12 336.47, 485.71 334.59 C 484.31 332.72, 483.74 331.58, 482.20 329.45 C 480.66 327.33, 479.78 325.97, 478.02 323.97 C 476.25 321.97, 475.29 321.02, 473.36 319.45 C 471.44 317.89, 470.57 317.07, 468.41 316.14 C 466.24 315.21, 464.90 314.80, 462.54 314.80 C 460.18 314.79, 458.90 315.14, 456.60 316.11 C 454.30 317.08, 453.12 317.83, 451.05 319.65 C 448.98 321.47, 447.97 322.83, 446.24 325.23 C 444.50 327.62, 443.63 329.24, 442.38 331.63 C 441.12 334.03, 440.67 335.41, 439.97 337.21 C 439.27 339.01, 439.22 339.72, 438.87 340.62 C 438.52 341.52, 438.55 341.69, 438.23 341.71 C 437.91 341.72, 437.83 341.56, 437.28 340.70 C 436.73 339.85, 436.32 339.08, 435.48 337.42 C 434.64 335.76, 434.03 334.58, 433.07 332.40 C 432.12 330.22, 431.63 328.83, 430.69 326.50 C 429.76 324.18, 429.36 322.83, 428.41 320.79 C 427.46 318.75, 427.09 317.83, 425.94 316.30 C 424.79 314.78, 424.16 314.07, 422.66 313.15 C 421.16 312.23, 420.27 311.94, 418.45 311.71 C 416.62 311.48, 415.83 311.72, 413.55 311.98 C 411.28 312.25, 409.97 312.47, 407.07 313.04 C 404.17 313.61, 402.49 314.10, 399.04 314.81 C 395.58 315.53, 393.71 315.98, 389.80 316.63 C 385.89 317.28, 383.60 317.50, 379.50 318.07 C 375.39 318.64, 373.18 319.06, 369.27 319.48 C 365.36 319.91, 363.07 319.58, 359.93 320.18 C 356.80 320.79, 355.41 321.43, 353.59 322.49 C 351.77 323.56, 351.42 324.45, 350.83 325.51 C 350.24 326.57, 350.34 327.05, 350.65 327.79 C 350.95 328.54, 351.75 328.86, 352.36 329.24" style="stroke: black; fill:#DCDCD8;"></path><path d="M 519.50,277.05 C 518.85 277.87, 518.73 278.45, 518.68 280.39 C 518.63 282.34, 518.62 283.73, 519.25 286.77 C 519.89 289.81, 520.83 291.84, 521.85 295.60 C 522.87 299.35, 523.45 301.67, 524.36 305.55 C 525.27 309.44, 525.70 311.38, 526.39 315.04 C 527.08 318.69, 527.25 320.54, 527.81 323.81 C 528.37 327.09, 528.58 328.70, 529.19 331.42 C 529.79 334.13, 529.95 335.25, 530.85 337.38 C 531.75 339.50, 532.23 340.64, 533.69 342.03 C 535.15 343.42, 536.16 344.01, 538.14 344.34 C 540.12 344.67, 541.45 344.40, 543.58 343.66 C 545.72 342.93, 546.72 342.26, 548.80 340.67 C 550.88 339.08, 551.93 337.85, 554.00 335.69 C 556.08 333.53, 557.21 332.02, 559.16 329.87 C 561.11 327.73, 561.91 326.76, 563.75 324.96 C 565.58 323.16, 566.72 322.38, 568.33 320.88 C 569.95 319.38, 570.78 318.59, 571.81 317.46 C 572.84 316.32, 573.10 316.03, 573.48 315.20 C 573.87 314.38, 573.78 313.87, 573.74 313.35 C 573.69 312.83, 573.44 312.79, 573.25 312.59 C 573.06 312.38, 573.02 312.46, 572.79 312.33 C 572.56 312.19, 572.51 312.02, 572.09 311.92 C 571.68 311.83, 571.50 311.69, 570.69 311.85 C 569.89 312.02, 569.44 312.00, 568.08 312.76 C 566.72 313.52, 565.72 314.24, 563.90 315.66 C 562.07 317.09, 560.96 318.07, 558.96 319.88 C 556.96 321.70, 556.00 322.70, 553.87 324.75 C 551.75 326.80, 550.38 328.13, 548.35 330.13 C 546.33 332.14, 545.33 333.25, 543.76 334.76 C 542.20 336.28, 541.62 336.80, 540.54 337.72 C 539.45 338.63, 538.95 339.11, 538.33 339.34 C 537.71 339.57, 537.80 339.64, 537.44 338.87 C 537.08 338.10, 536.92 337.27, 536.52 335.49 C 536.12 333.71, 536.06 332.53, 535.44 329.96 C 534.82 327.40, 534.19 325.85, 533.42 322.66 C 532.65 319.47, 532.34 317.65, 531.60 314.01 C 530.86 310.37, 530.43 308.39, 529.70 304.44 C 528.98 300.49, 528.59 298.13, 527.97 294.28 C 527.36 290.43, 527.32 288.23, 526.63 285.18 C 525.95 282.12, 525.50 280.77, 524.57 279.00 C 523.64 277.22, 522.98 276.71, 521.97 276.32 C 520.96 275.93, 520.16 276.24, 519.50 277.05" style="stroke: black; fill:#DCDCD8;"></path><path d="M 557.26,330.54 C 556.58 331.38, 556.35 332.10, 556.42 333.85 C 556.50 335.61, 556.64 337.04, 557.64 339.32 C 558.64 341.60, 559.50 343.04, 561.43 345.27 C 563.36 347.51, 564.71 348.66, 567.29 350.49 C 569.87 352.32, 571.34 353.11, 574.31 354.44 C 577.28 355.76, 578.89 356.29, 582.13 357.11 C 585.37 357.93, 587.15 358.31, 590.50 358.54 C 593.84 358.78, 595.67 358.68, 598.85 358.29 C 602.03 357.90, 603.62 357.62, 606.40 356.58 C 609.18 355.54, 610.54 354.76, 612.76 353.11 C 614.99 351.46, 615.94 350.42, 617.54 348.31 C 619.13 346.21, 619.69 344.98, 620.72 342.58 C 621.75 340.18, 622.44 338.63, 622.68 336.31 C 622.92 333.98, 622.68 332.32, 621.91 330.95 C 621.14 329.58, 619.86 329.13, 618.83 329.47 C 617.80 329.82, 617.05 330.82, 616.74 332.68 C 616.44 334.54, 616.37 336.23, 617.29 338.78 C 618.21 341.34, 619.35 343.10, 621.33 345.44 C 623.32 347.78, 624.82 348.85, 627.21 350.48 C 629.60 352.11, 630.68 352.62, 633.27 353.58 C 635.86 354.55, 637.38 355.03, 640.16 355.32 C 642.95 355.61, 644.47 355.52, 647.20 355.05 C 649.93 354.59, 651.22 354.09, 653.83 352.99 C 656.43 351.88, 657.87 351.18, 660.23 349.52 C 662.58 347.85, 663.78 346.68, 665.63 344.66 C 667.47 342.64, 668.27 341.31, 669.44 339.42 C 670.61 337.54, 671.08 336.54, 671.49 335.23 C 671.90 333.91, 671.68 333.12, 671.50 332.86 C 671.33 332.60, 670.64 332.91, 670.61 333.93 C 670.58 334.95, 670.52 336.08, 671.35 337.96 C 672.18 339.83, 672.97 341.29, 674.76 343.30 C 676.55 345.31, 677.90 346.41, 680.29 348.01 C 682.67 349.60, 684.08 350.25, 686.68 351.26 C 689.28 352.28, 690.68 352.67, 693.28 353.09 C 695.87 353.51, 697.36 353.52, 699.67 353.35 C 701.97 353.18, 703.18 352.89, 704.80 352.22 C 706.41 351.55, 707.25 350.90, 707.75 350.00 C 708.25 349.09, 708.03 348.35, 707.30 347.68 C 706.57 347.02, 705.68 346.95, 704.12 346.66 C 702.56 346.37, 701.48 346.34, 699.52 346.26 C 697.56 346.17, 696.35 346.52, 694.32 346.24 C 692.29 345.95, 691.26 345.68, 689.37 344.82 C 687.47 343.96, 686.45 343.35, 684.84 341.95 C 683.23 340.54, 682.65 339.48, 681.32 337.78 C 679.99 336.09, 679.55 334.94, 678.20 333.48 C 676.85 332.02, 676.14 331.22, 674.57 330.47 C 672.99 329.72, 671.91 329.46, 670.32 329.74 C 668.74 330.01, 667.95 330.70, 666.65 331.84 C 665.34 332.98, 665.07 333.87, 663.80 335.44 C 662.53 337.02, 661.85 338.06, 660.29 339.71 C 658.73 341.36, 657.85 342.30, 655.99 343.69 C 654.14 345.08, 653.03 345.75, 651.04 346.67 C 649.04 347.60, 648.08 347.96, 646.04 348.32 C 643.99 348.68, 642.91 348.63, 640.81 348.46 C 638.71 348.29, 637.40 348.15, 635.53 347.47 C 633.66 346.80, 632.94 346.48, 631.47 345.07 C 630.00 343.67, 629.36 342.43, 628.19 340.45 C 627.03 338.46, 626.67 337.04, 625.64 335.14 C 624.61 333.23, 624.23 332.15, 623.04 330.90 C 621.85 329.65, 621.02 328.96, 619.71 328.88 C 618.40 328.81, 617.44 329.32, 616.48 330.55 C 615.52 331.78, 615.37 333.09, 614.91 335.03 C 614.44 336.97, 614.67 338.33, 614.17 340.25 C 613.66 342.16, 613.41 343.07, 612.38 344.61 C 611.35 346.15, 610.66 346.79, 609.02 347.94 C 607.38 349.09, 606.37 349.60, 604.16 350.36 C 601.96 351.11, 600.66 351.36, 598.01 351.71 C 595.37 352.06, 593.77 352.27, 590.92 352.10 C 588.07 351.93, 586.52 351.61, 583.77 350.85 C 581.03 350.10, 579.61 349.58, 577.21 348.34 C 574.80 347.11, 573.67 346.31, 571.75 344.69 C 569.83 343.07, 568.98 342.05, 567.62 340.23 C 566.26 338.42, 565.97 337.36, 564.94 335.63 C 563.92 333.90, 563.52 332.79, 562.50 331.60 C 561.48 330.40, 560.88 329.86, 559.83 329.65 C 558.78 329.44, 557.94 329.70, 557.26 330.54" style="stroke: black; fill:#DCDCD8;"></path><path d="M 739.72,325.81 C 739.64 324.61, 739.06 323.47, 737.51 322.12 C 735.96 320.77, 734.70 319.83, 731.95 319.07 C 729.20 318.30, 727.11 318.19, 723.77 318.30 C 720.42 318.41, 718.46 318.94, 715.24 319.61 C 712.01 320.28, 710.26 320.47, 707.64 321.66 C 705.02 322.86, 703.52 323.71, 702.13 325.59 C 700.74 327.47, 700.37 328.87, 700.70 331.06 C 701.03 333.25, 701.70 334.67, 703.77 336.56 C 705.85 338.45, 707.64 339.07, 711.07 340.51 C 714.49 341.95, 716.90 342.43, 720.91 343.76 C 724.93 345.08, 727.39 345.81, 731.13 347.14 C 734.87 348.46, 736.79 349.29, 739.62 350.40 C 742.45 351.50, 743.69 352.09, 745.26 352.65 C 746.83 353.22, 747.36 353.13, 747.47 353.23 C 747.59 353.32, 747.17 353.01, 745.84 353.13 C 744.51 353.24, 743.36 353.24, 740.84 353.79 C 738.32 354.34, 736.60 355.22, 733.25 355.86 C 729.90 356.50, 727.58 356.83, 724.09 357.00 C 720.60 357.17, 718.54 356.86, 715.80 356.72 C 713.05 356.58, 712.05 356.50, 710.37 356.29 C 708.69 356.08, 708.27 355.87, 707.40 355.68 C 706.53 355.49, 706.55 355.24, 706.03 355.33 C 705.50 355.41, 704.96 355.48, 704.78 356.11 C 704.61 356.75, 704.38 357.39, 705.15 358.50 C 705.92 359.62, 706.63 360.72, 708.65 361.69 C 710.68 362.66, 712.13 363.04, 715.28 363.35 C 718.42 363.67, 720.57 363.43, 724.36 363.29 C 728.14 363.15, 730.45 363.01, 734.19 362.67 C 737.94 362.32, 740.14 362.56, 743.06 361.55 C 745.99 360.54, 747.32 359.36, 748.80 357.62 C 750.29 355.88, 750.64 354.70, 750.50 352.84 C 750.37 350.98, 749.86 349.92, 748.13 348.31 C 746.41 346.70, 744.93 346.06, 741.89 344.79 C 738.84 343.52, 736.72 343.25, 732.92 341.96 C 729.12 340.67, 726.69 339.87, 722.87 338.36 C 719.04 336.85, 716.84 335.85, 713.80 334.40 C 710.76 332.95, 709.51 332.02, 707.67 331.11 C 705.83 330.21, 705.06 330.23, 704.61 329.87 C 704.16 329.51, 704.35 329.62, 705.43 329.32 C 706.51 329.01, 707.77 328.87, 710.00 328.35 C 712.24 327.83, 713.81 327.18, 716.59 326.72 C 719.36 326.25, 721.16 326.01, 723.89 326.02 C 726.63 326.03, 728.11 326.45, 730.26 326.77 C 732.41 327.08, 733.11 327.31, 734.64 327.58 C 736.17 327.86, 736.91 328.49, 737.92 328.14 C 738.94 327.79, 739.81 327.02, 739.72 325.81" style="stroke: black; fill:#DCDCD8;"></path><path d="M 760.10,297.49 C 759.55 298.16, 759.44 298.32, 759.34 299.72 C 759.23 301.13, 759.07 302.18, 759.58 304.52 C 760.10 306.87, 761.00 308.31, 761.92 311.45 C 762.85 314.58, 763.45 316.64, 764.21 320.19 C 764.97 323.73, 765.22 325.75, 765.72 329.16 C 766.22 332.57, 766.28 334.27, 766.73 337.22 C 767.18 340.17, 767.23 341.63, 767.97 343.91 C 768.71 346.20, 769.13 347.27, 770.41 348.65 C 771.69 350.03, 772.59 350.52, 774.37 350.83 C 776.14 351.14, 777.23 350.96, 779.28 350.18 C 781.34 349.39, 782.40 348.64, 784.63 346.91 C 786.85 345.18, 787.82 343.55, 790.40 341.52 C 792.98 339.48, 794.57 338.33, 797.51 336.74 C 800.45 335.15, 802.19 334.44, 805.10 333.57 C 808.00 332.70, 809.56 332.57, 812.06 332.40 C 814.56 332.24, 815.61 332.23, 817.58 332.73 C 819.56 333.24, 820.35 333.74, 821.93 334.93 C 823.52 336.13, 824.13 336.98, 825.50 338.70 C 826.88 340.42, 827.48 341.50, 828.82 343.53 C 830.16 345.57, 830.79 346.78, 832.21 348.89 C 833.63 351.01, 834.34 352.26, 835.93 354.11 C 837.52 355.96, 838.42 356.92, 840.15 358.14 C 841.87 359.35, 843.27 360.19, 844.56 360.18 C 845.85 360.17, 846.59 359.37, 846.59 358.10 C 846.60 356.84, 845.63 355.53, 844.59 353.87 C 843.55 352.21, 842.68 351.57, 841.40 349.79 C 840.12 348.00, 839.51 347.01, 838.18 344.95 C 836.85 342.90, 836.26 341.66, 834.74 339.50 C 833.23 337.35, 832.47 336.14, 830.61 334.19 C 828.76 332.25, 827.77 331.23, 825.48 329.76 C 823.18 328.30, 821.90 327.61, 819.14 326.86 C 816.38 326.11, 814.82 325.84, 811.66 326.02 C 808.50 326.21, 806.72 326.74, 803.33 327.79 C 799.95 328.84, 798.11 329.67, 794.74 331.28 C 791.38 332.88, 789.58 334.01, 786.52 335.83 C 783.45 337.64, 781.61 338.56, 779.41 340.34 C 777.21 342.13, 776.53 343.40, 775.52 344.74 C 774.51 346.08, 774.58 346.72, 774.34 347.03 C 774.11 347.35, 774.43 347.23, 774.36 346.33 C 774.30 345.43, 774.29 344.55, 774.04 342.53 C 773.79 340.50, 773.60 339.06, 773.12 336.20 C 772.64 333.34, 772.18 331.66, 771.63 328.24 C 771.08 324.83, 770.85 322.80, 770.35 319.12 C 769.85 315.44, 769.68 313.23, 769.15 309.84 C 768.62 306.45, 768.59 304.61, 767.71 302.16 C 766.83 299.71, 765.87 298.73, 764.75 297.58 C 763.63 296.42, 763.04 296.41, 762.11 296.39 C 761.18 296.37, 760.66 296.82, 760.10 297.49" style="stroke: black; fill:#DCDCD8;"></path></g></svg>